<?xml version="1.0" encoding="utf-8"?>
<!-- Generator: Adobe Illustrator 23.0.1, SVG Export Plug-In . SVG Version: 6.00 Build 0)  -->
<svg version="1.1" id="Calque_1" xmlns="http://www.w3.org/2000/svg" xmlns:xlink="http://www.w3.org/1999/xlink" x="0px" y="0px"
	 viewBox="0 0 384 384" style="enable-background:new 0 0 384 384;" xml:space="preserve">
<style type="text/css">
	.st0{fill:#FFFFFF;}
</style>
<path class="st0" d="M381,25.3c0-0.5-0.1-0.9-0.1-1.4c-0.2-1.5-0.5-2.9-0.9-4.2l0-2.4l-1.6-1.5c-0.6-1.2-1.4-2.3-2.3-3.5l-0.1-0.1
	c-0.3-0.4-0.6-0.7-0.9-1.1c-1.5-1.7-3-3-4.5-4.1c-0.2-0.1-0.3-0.2-0.5-0.3c-1.5-1-3.2-1.8-5.1-2.4c-0.5-0.2-1.1-0.3-1.5-0.5
	c-2.3-0.6-4.3-0.9-6.3-0.9H251.1C237.8,2.8,227,13.7,227,27s10.8,24.1,24.1,24.1h47.7l-69.4,69.4c-24.6-17.6-53.6-26.9-84.2-26.9
	C65.1,93.6,0,158.8,0,238.8C0,318.9,65.1,384,145.2,384s145.2-65.1,145.2-145.2c0-30.6-9.3-59.5-26.9-84.2l69.4-69.4v47.7
	c0,13.3,10.8,24.1,24.1,24.1s24.1-10.8,24.1-24.1V27C381.2,26.2,381.1,25.7,381,25.3z M213.7,170.2c18.3,18.4,28.4,42.7,28.4,68.6
	c0,53.4-43.5,96.9-96.9,96.9s-96.9-43.5-96.9-96.9c0-53.4,43.5-96.9,96.9-96.9C171.1,141.9,195.4,152,213.7,170.2z"/>
</svg>
