<?xml version="1.0" encoding="utf-8"?>
<!-- Generator: Adobe Illustrator 23.0.1, SVG Export Plug-In . SVG Version: 6.00 Build 0)  -->
<svg version="1.1" id="Capa_1" xmlns="http://www.w3.org/2000/svg" xmlns:xlink="http://www.w3.org/1999/xlink" x="0px" y="0px"
	 viewBox="0 0 512 512" style="enable-background:new 0 0 512 512;" xml:space="preserve">
<style type="text/css">
	.st0{fill:#FFFAFA;}
</style>
<g>
	<path class="st0" d="M196.6,409.8h-37v-48.1c8.9-1.4,16.9-3.4,24.3-6l11.3-4L186,344c-7.8-6.5-15.2-14-21.8-22.4l-2.6-3.3l-4.1,0.8
		c-6.3,1.3-12.8,2-19.3,2c-52.6,0-95.4-42.8-95.4-95.4c0-52.6,42.8-95.4,95.4-95.4c57.1,0,95.4,49.3,95.4,95.4
		c0,14.8-3.7,29.4-11.1,43.6l-2.1,4l2.9,3.5c7.1,8.4,15.6,15.1,25.3,20l5.8,2.9l3.2-5.6c12.5-21.7,18.8-44.7,18.8-68.4
		c0-34.9-14.3-69.8-39.2-95.8c-26.2-27.3-61.4-42.4-99-42.4C62,87.6,0,149.6,0,225.8c0,68,49.8,125.4,116.8,135.9v48.1h-37
		c-11.8,0-21.4,9.6-21.4,21.4s9.6,21.4,21.4,21.4h37v38c0,11.8,9.6,21.4,21.4,21.4s21.4-9.6,21.4-21.4v-38h37
		c11.8,0,21.4-9.6,21.4-21.4S208.4,409.8,196.6,409.8z"/>
	<path class="st0" d="M490.6,0H403c-11.8,0-21.4,9.6-21.4,21.4s9.6,21.4,21.4,21.4h35.6l-73.4,71.8c-24-17.7-51.9-27-81-27
		c-14.9,0-29.8,2.7-45.7,8.3l-11.3,4l9.2,7.7c7.8,6.5,15.2,14,21.8,22.4l2.6,3.3l4.1-0.8c6.3-1.3,12.8-2,19.3-2
		c52.6,0,95.4,42.8,95.4,95.4c0,52.6-42.8,95.4-95.4,95.4c-51.7,0-95.4-43.7-95.4-95.4c0-14.8,3.7-29.4,11.1-43.6l2.1-4l-2.9-3.5
		c-7.1-8.4-15.6-15.1-25.3-20l-5.8-2.9l-3.2,5.6c-12.5,21.7-18.8,44.7-18.8,68.4c0,35,14.5,70,39.8,96.1
		c26.4,27.2,61.3,42.1,98.4,42.1c76.2,0,138.2-62,138.2-138.2c0-29-9.3-56.9-26.9-80.9l73.7-72V109c0,11.8,9.6,21.4,21.4,21.4
		S512,120.8,512,109V21.4C512,9.6,502.4,0,490.6,0z"/>
</g>
</svg>
